<svg width="100" height="100" viewBox="0 0 100 100" fill="none" xmlns="http://www.w3.org/2000/svg">
<circle cx="50" cy="50" r="50" fill="#D9D9D9"/>
<g clip-path="url(#clip0_7_67)">
<path d="M53.1 29.0451V28.8848C53.1 28.1369 53.325 27.4691 53.775 26.8815C54.225 26.2938 54.8 26 55.5 26C56.2 26 56.825 26.2404 57.375 26.7212C57.925 27.202 58.225 27.8431 58.275 28.6444C58.325 29.4457 58.1 30.1135 57.6 30.6477C57.1 31.182 56.5 31.4491 55.8 31.4491L55.35 31.6093L55.5 31.8497L55.35 32.7312L55.05 35.2955C55.15 35.4023 55.2 35.5092 55.2 35.616L54.9 37.2187C54.8 37.4324 54.7 37.5927 54.6 37.6995L54.45 38.3406C54.25 39.1953 54.075 39.8898 53.925 40.424C53.775 40.9583 53.65 41.3856 53.55 41.7062V42.0267C53.45 42.5609 53.375 42.9883 53.325 43.3088C53.275 43.6294 53.1 44.1636 52.8 44.9115C52.6 45.3389 52.6 46.0334 52.8 46.995L52.95 47.1553C52.95 47.4758 53.075 47.8497 53.325 48.2771C53.575 48.7045 53.7 49.0785 53.7 49.399C53.8 51.5359 53.65 53.3523 53.25 54.8481L53.55 55.8097C54.75 56.4507 55.1 57.1452 54.6 57.8932L55.35 58.2137C56.55 58.8548 57.4 59.4157 57.9 59.8965C58.4 60.3773 58.9 60.8848 59.4 61.419C59.8 61.5259 60.1 61.6861 60.3 61.8998L60.75 62.0601C62.85 63.5559 64.95 65.3723 67.05 67.5092L67.65 67.99V68.1503L67.5 68.4708L67.95 68.7913H68.1C68.4 69.005 68.6 69.1119 68.7 69.1119H68.85C68.95 69.1119 69.05 69.0584 69.15 68.9516L69.45 68.7913C69.65 68.5776 69.85 68.4174 70.05 68.3105H70.65C70.75 68.3105 70.75 68.3639 70.65 68.4708L70.05 68.7913L69.3 69.7529H70.35L71.4 69.9132C71.7 69.8063 71.95 69.6995 72.15 69.5927L72.9 69.1119C73.2 69.005 73.5 69.1119 73.8 69.4324H73.95C74.05 69.5392 74 69.6995 73.8 69.9132L72 71.6761C71.5 72.1035 71.05 72.3706 70.65 72.4775L68.7 73.9199C68.6 74.0267 68.5 74.0267 68.4 73.9199L67.95 73.2788L67.65 72.6377L67.275 72.0768L66.825 71.4357L66.45 70.9549L66.15 70.5543L65.55 70.0735C65.35 70.0735 65.15 70.02 64.95 69.9132L63 68.3105C62.7 68.3105 62.35 68.1502 61.95 67.8297C60.45 66.4407 59.45 65.586 58.95 65.2654L58.05 64.6244L56.25 64.3038C55.65 64.197 54.85 63.8765 53.85 63.3422L52.65 62.7012C51.85 62.2738 51.3 62.0601 51 62.0601L50.4 61.7396C50 61.6327 49.7 61.5259 49.5 61.419L49.2 61.0985C49 61.0985 48.8 61.1519 48.6 61.2588L45.6 62.8614L41.85 64.6244C40.85 65.4791 39.9 66.1736 39 66.7078L37.35 67.5092L34.8 69.4324C34.6 69.6461 34.4 69.6461 34.2 69.4324L33.9 69.7529C33.6 69.8598 33.4 69.9132 33.3 69.9132L32.7 70.2337V70.5543H32.4L32.1 71.0351C31.9 71.4624 31.7 71.7028 31.5 71.7563C31.3 71.8097 31.175 71.8898 31.125 71.9967C31.075 72.1035 31.025 72.1836 30.975 72.2371L30.675 72.5576L30.225 72.8781L29.55 72.798L28.65 72.9583L28.05 73.1185C27.55 73.2254 27.15 73.1452 26.85 72.8781C26.55 72.611 26.3 72.2103 26.1 71.6761C25.9 71.3556 26 71.0885 26.4 70.8748L26.55 70.7145C26.65 70.6077 26.8 70.5543 27 70.5543H27.9L29.1 70.0735L29.7 69.9132C29.7 69.6995 29.75 69.5392 29.85 69.4324C29.95 69.3255 30.1 69.2721 30.3 69.2721V69.1119C30.2 68.8982 30.15 68.6845 30.15 68.4708C30.05 68.2571 30.025 68.0968 30.075 67.99C30.125 67.8831 30.175 67.8297 30.225 67.8297H30.3L30.45 68.3105C30.55 68.8447 30.7 69.005 30.9 68.7913L31.05 68.4708C31.15 68.2571 31.3 68.1503 31.5 68.1503L31.8 68.4708L32.1 68.1503L31.95 67.99C31.95 67.8831 32 67.8297 32.1 67.8297L32.7 67.1886C33.2 66.5476 33.8 65.9599 34.5 65.4257C35.9 64.2504 37.4 63.3422 39 62.7012C39.5 62.1669 40.05 61.8998 40.65 61.8998C41.05 61.1519 41.65 60.3506 42.45 59.4958C43.15 58.9616 43.65 58.5876 43.95 58.374C44.15 57.9466 44.4 57.7329 44.7 57.7329H44.85L45.15 57.4124C45.35 57.3055 45.5 57.1987 45.6 57.0918V56.2905C45.6 55.7563 45.65 55.3289 45.75 55.0083C45.85 54.6878 46.1 54.5275 46.5 54.5275L47.1 53.8865C46.9 53.4591 46.8 52.9783 46.8 52.4441H46.65C46.45 52.1235 46.35 51.803 46.35 51.4825C46.05 50.9482 45.85 50.5209 45.75 50.2003H45.3C45.2 50.5209 44.95 50.7346 44.55 50.8414L44.4 51.1619C44 51.9098 43.65 52.4708 43.35 52.8447C43.05 53.2187 42.5 53.6728 41.7 54.207C41.2 54.7412 40.85 55.3289 40.65 55.9699C40.55 56.2905 40.55 56.611 40.65 56.9316L40.5 57.2521H40.65C40.65 57.4658 40.7 57.5726 40.8 57.5726H40.95C41.15 57.6795 41.25 57.813 41.25 57.9733C41.25 58.1336 41.1 58.187 40.8 58.1336C40.5 58.0801 40.275 57.9733 40.125 57.813C39.975 57.6528 39.85 57.5726 39.75 57.5726L39.3 58.0534C39.1 58.374 38.9 58.5075 38.7 58.4541C38.5 58.4007 38.45 58.3205 38.55 58.2137L38.7 58.0534C38.8 57.8397 38.8 57.7329 38.7 57.7329L37.5 58.0534C37.4 58.1603 37.275 58.1603 37.125 58.0534C36.975 57.9466 37 57.8397 37.2 57.7329L37.95 57.4124C37.95 57.3055 37.9 57.2521 37.8 57.2521C37.4 57.4658 37 57.5192 36.6 57.4124L35.85 57.2521L35.7 57.0918C35.7 56.985 35.75 56.9316 35.85 56.9316C36.25 57.0384 36.75 56.985 37.35 56.7713L38.4 56.2905L39.6 54.8481L39.75 54.5275C40.15 53.6728 40.575 52.8982 41.025 52.2037C41.475 51.5092 41.95 50.9482 42.45 50.5209L42.6 49.8798C42.8 49.4524 43 49.0785 43.2 48.7579C43.4 48.4374 43.65 48.01 43.95 47.4758L44.4 46.8347C44.8 46.1937 45.25 45.8731 45.75 45.8731L46.2 45.3923C46.3 45.2855 46.35 45.1252 46.35 44.9115L46.65 44.591L46.5 44.4307C45.9 43.8965 45.6 43.4157 45.6 42.9883C45.5 42.2404 45.725 41.5993 46.275 41.0651C46.825 40.5309 47.375 40.2905 47.925 40.3439C48.475 40.3973 48.9 40.5843 49.2 40.9048L49.5 41.2254C49.6 41.2254 49.65 41.2788 49.65 41.3856L50.25 41.7062V42.187C50.45 42.4007 50.55 42.5609 50.55 42.6678C50.75 42.3472 51.05 41.9733 51.45 41.5459L52.2 38.9816C52.2 38.5543 52.3 38.1269 52.5 37.6995L52.8 37.2187V36.8982L53.25 34.975H53.55L54 33.0518C54.1 32.7312 54.1 32.3573 54 31.9299L53.4 30.3272L53.1 29.0451Z" fill="black"/>
</g>
<defs>
<clipPath id="clip0_7_67">
<rect width="48" height="48" fill="white" transform="translate(26 26)"/>
</clipPath>
</defs>
</svg>
